<?xml version="1.0" standalone="no"?>
<!DOCTYPE svg PUBLIC "-//W3C//DTD SVG 20010904//EN"
 "http://www.w3.org/TR/2001/REC-SVG-20010904/DTD/svg10.dtd">
<svg version="1.0" xmlns="http://www.w3.org/2000/svg"
 width="655.000000pt" height="655.000000pt" viewBox="0 0 655.000000 655.000000"
 preserveAspectRatio="xMidYMid meet">
<metadata>
Created by potrace 1.11, written by Peter Selinger 2001-2013
</metadata>
<g transform="translate(0.000000,655.000000) scale(0.100000,-0.100000)"
fill="#000000" stroke="none">
<path d="M667 5743 c-4 -3 -7 -849 -7 -1880 l0 -1873 808 0 c866 0 1102 -8
1252 -39 141 -30 279 -82 378 -144 l42 -27 0 1811 0 1811 -36 49 c-56 76 -161
166 -238 204 -88 43 -198 70 -340 84 -120 12 -1848 16 -1859 4z m2097 -1309
l-88 -196 -136 -117 c-74 -65 -288 -250 -475 -412 l-340 -295 -72 74 -72 74
228 241 c125 133 318 339 429 457 l202 215 202 82 c112 44 205 79 207 77 2 -2
-36 -92 -85 -200z m-1306 -825 c70 -51 142 -106 161 -123 18 -17 78 -98 133
-180 l100 -149 -34 -34 -34 -33 -98 100 c-54 55 -100 100 -102 100 -1 0 -73
-61 -160 -135 -135 -116 -163 -145 -193 -200 -23 -43 -40 -64 -49 -60 -8 3
-38 8 -68 11 -59 7 -59 7 -69 95 l-7 57 60 27 c50 23 81 49 189 164 70 75 136
146 147 158 18 22 18 22 -77 125 l-96 103 31 32 c18 18 34 33 36 33 2 0 61
-41 130 -91z"/>
<path d="M3997 5739 c-261 -25 -443 -120 -556 -290 l-41 -61 0 -1804 c0 -992
2 -1804 4 -1804 2 0 31 18 64 40 104 70 236 116 417 147 87 14 221 17 1048 20
l947 5 -2 1876 -3 1877 -895 1 c-492 1 -934 -2 -983 -7z m247 -1105 c14 -5 16
-44 16 -330 l0 -324 25 0 25 0 0 315 c0 293 1 315 18 315 25 -1 102 -37 107
-52 3 -7 4 -352 3 -766 l-3 -752 -57 47 -58 48 0 288 0 287 -31 0 -30 0 7
-234 c4 -128 4 -245 0 -260 l-7 -27 -69 62 -69 61 -3 137 c-3 128 -4 136 -23
136 -18 0 -20 -8 -25 -107 l-5 -108 -62 56 -63 56 0 294 0 294 -25 0 -25 0 -2
-267 -3 -268 -68 85 c-125 155 -180 302 -181 480 0 121 16 187 72 295 l37 70
5 -175 5 -175 28 -3 27 -3 0 209 c0 186 2 211 18 224 17 16 76 48 87 48 3 0 5
-43 5 -95 0 -95 0 -95 25 -95 l25 0 0 104 c0 58 4 107 8 110 5 3 28 8 50 12
l42 7 0 -397 0 -396 25 0 25 0 0 400 0 400 54 0 c30 0 61 -3 70 -6z m876 -224
l0 -230 25 0 25 0 0 225 0 225 25 0 c38 0 144 -38 192 -68 l43 -27 0 -207 0
-208 30 0 30 0 0 171 c0 94 4 168 9 165 4 -3 25 -38 44 -79 93 -186 86 -400
-18 -607 -18 -36 -42 -76 -54 -90 l-20 -25 -1 118 0 117 -30 0 -30 0 0 -158 0
-157 -103 -103 c-56 -56 -106 -102 -110 -102 -4 0 -7 115 -7 256 l0 255 -22
-3 -23 -3 -3 -282 -2 -282 -63 -55 -62 -56 -6 498 c-3 273 -7 575 -8 670 l-1
172 -25 0 -25 0 0 -699 0 -699 -42 -36 -43 -35 -5 62 c-5 59 -6 62 -32 65
l-28 3 0 -93 0 -94 -47 -36 -48 -37 -3 675 -2 674 -30 0 -30 0 -2 -695 -3
-696 -57 43 -58 42 0 764 c0 596 3 763 12 760 7 -3 33 -32 58 -66 25 -33 48
-61 51 -61 4 -1 18 17 32 38 28 42 106 121 119 121 4 0 8 -81 8 -181 l0 -180
28 3 27 3 3 202 2 202 53 17 c28 9 58 19 65 22 6 2 12 -3 12 -12 0 -11 9 -16
30 -16 23 0 30 4 30 20 0 17 7 20 45 20 l45 0 0 -230z"/>
<path d="M5270 4195 l0 -255 30 0 30 0 0 255 0 255 -30 0 -30 0 0 -255z"/>
<path d="M4780 3731 l0 -251 30 0 30 0 -2 248 -3 247 -27 3 -28 3 0 -250z"/>
<path d="M110 3305 l0 -1884 1138 -4 c1238 -4 1188 -1 1345 -61 137 -52 244
-147 338 -301 l52 -85 288 0 288 0 17 32 c35 69 119 181 174 231 105 97 249
156 435 177 55 6 504 10 1168 10 l1077 0 0 1885 0 1885 -145 0 -145 0 -2
-1688 c-3 -1593 -4 -1689 -21 -1715 -9 -15 -29 -35 -44 -44 -25 -17 -97 -18
-1098 -23 -1062 -6 -1071 -6 -1153 -28 -198 -53 -342 -165 -428 -333 -31 -62
-66 -89 -116 -89 -63 0 -92 22 -136 103 -95 172 -232 271 -453 323 -68 16
-165 18 -1134 23 -991 6 -1063 7 -1088 24 -15 9 -35 29 -44 44 -17 26 -18 122
-21 1715 l-2 1688 -145 0 -145 0 0 -1885z"/>
</g>
</svg>
